# xmcd
#
# Track frame offsets: 
#        150
#        25111
#        52285
#        77489
#        93240
#        114676
#        133334
#        150588
#        170472
#        191038
#        211519
#        231320
#        250868
#
# Disc length: 3718 seconds
#
# Revision: 0
# Processed by: cddbd v1.5.2PL0 Copyright (c) Steve Scherf et al.
# Submitted via: ExactAudioCopy v0.95a5
#
DISCID=ab0e840d
DTITLE=Sam Greene - Downhome Millennium Soul
DYEAR=2005
DGENRE=Blue
TTITLE0=Down Home Blues
TTITLE1=God Blessed Our Love
TTITLE2=Ain't No Way
TTITLE3=Trying To Hold On
TTITLE4=All Night
TTITLE5=You Made Me Over
TTITLE6=Skin Deep
TTITLE7=They Don't Make'em Like You
TTITLE8=No Other Love
TTITLE9=I'm Missing You
TTITLE10=Let's Get Married
TTITLE11=Is Someone Stealing Your Heart
TTITLE12=Down Home Blues (Remix)
EXTD=
EXTT0=
EXTT1=
EXTT2=
EXTT3=
EXTT4=
EXTT5=
EXTT6=
EXTT7=
EXTT8=
EXTT9=
EXTT10=
EXTT11=
EXTT12=
PLAYORDER=
